<svg width="120" height="120" viewBox="0 0 120 120" fill="none" xmlns="http://www.w3.org/2000/svg">
<path d="M60 45.0188C62.9667 45.0188 65.8668 45.8985 68.3336 47.5467C70.8003 49.1949 72.7229 51.5376 73.8582 54.2785C74.9935 57.0194 75.2906 60.0354 74.7118 62.9451C74.133 65.8548 72.7044 68.5276 70.6066 70.6254C68.5088 72.7231 65.8361 74.1518 62.9264 74.7305C60.0166 75.3093 57.0006 75.0123 54.2597 73.8769C51.5189 72.7416 49.1762 70.819 47.528 68.3523C45.8797 65.8856 45 62.9855 45 60.0187C45.005 56.042 46.5869 52.2296 49.3989 49.4176C52.2109 46.6057 56.0233 45.0237 60 45.0188ZM60 37.5188C55.5499 37.5188 51.1998 38.8384 47.4997 41.3107C43.7996 43.783 40.9157 47.297 39.2127 51.4084C37.5097 55.5197 37.0642 60.0437 37.9323 64.4083C38.8005 68.7729 40.9434 72.782 44.0901 75.9287C47.2368 79.0753 51.2459 81.2183 55.6105 82.0864C59.975 82.9546 64.499 82.509 68.6104 80.806C72.7217 79.1031 76.2357 76.2192 78.7081 72.5191C81.1804 68.819 82.5 64.4688 82.5 60.0187C82.5 54.0514 80.1295 48.3284 75.9099 44.1089C71.6903 39.8893 65.9674 37.5188 60 37.5188ZM20.2275 25.5488L25.5375 20.2463L38.6812 33.3938L33.375 38.6963L20.2275 25.5488ZM7.5 56.2688H26.25V63.7687H7.5V56.2688ZM20.2275 94.4925L33.375 81.345L38.6775 86.6475L25.5338 99.795L20.2275 94.4925ZM56.25 93.7688H63.75V112.519H56.25V93.7688ZM81.3263 86.6437L86.6287 81.3413L99.7763 94.4888L94.4738 99.7912L81.3263 86.6437ZM93.75 56.2688H112.5V63.7687H93.75V56.2688ZM81.3263 33.39L94.4738 20.2425L99.7763 25.545L86.6287 38.6925L81.3263 33.39ZM56.25 7.51875H63.75V26.2688H56.25V7.51875Z" fill="#1F1F81"/>
</svg>
