<svg width="120" height="120" viewBox="0 0 120 120" fill="none" xmlns="http://www.w3.org/2000/svg">
<path d="M88.125 82.5H86.25V75H88.125C92.6005 75.179 96.9638 73.5728 100.255 70.5347C103.546 67.4966 105.496 63.2755 105.675 58.8C105.854 54.3245 104.248 49.9611 101.21 46.6698C98.1716 43.3786 93.9505 41.429 89.475 41.25H86.25L85.875 38.175C85.043 31.8617 81.9445 26.066 77.1566 21.8677C72.3687 17.6693 66.2179 15.3545 59.85 15.3545C53.4821 15.3545 47.3313 17.6693 42.5434 21.8677C37.7555 26.066 34.6569 31.8617 33.825 38.175L33.75 41.25H30.525C26.0494 41.429 21.8283 43.3786 18.7902 46.6698C15.7521 49.9611 14.1459 54.3245 14.325 58.8C14.504 63.2755 16.4536 67.4966 19.7448 70.5347C23.0361 73.5728 27.3994 75.179 31.875 75H33.75V82.5H31.875C25.8615 82.4619 20.0743 80.2022 15.6262 76.1553C11.178 72.1085 8.38277 66.5601 7.77795 60.577C7.17312 54.5939 8.80137 48.5984 12.3497 43.7432C15.8979 38.888 21.1158 35.5158 27 34.275C28.6189 26.7244 32.7781 19.9574 38.7836 15.103C44.7892 10.2486 52.2778 7.60046 60 7.60046C67.7221 7.60046 75.2107 10.2486 81.2163 15.103C87.2218 19.9574 91.3811 26.7244 93 34.275C98.8842 35.5158 104.102 38.888 107.65 43.7432C111.199 48.5984 112.827 54.5939 112.222 60.577C111.617 66.5601 108.822 72.1085 104.374 76.1553C99.9256 80.2022 94.1384 82.4619 88.125 82.5Z" fill="#1F1F81"/>
<path d="M59.5125 114.375L52.9876 110.625L64.8001 90H42.3L60.4875 58.125L67.0126 61.875L55.2001 82.5H77.7L59.5125 114.375Z" fill="#1F1F81"/>
</svg>
