<svg width="120" height="120" viewBox="0 0 120 120" fill="none" xmlns="http://www.w3.org/2000/svg">
<path d="M88.125 82.5H31.875C25.8615 82.4619 20.0743 80.2022 15.6262 76.1553C11.178 72.1085 8.38277 66.5601 7.77795 60.577C7.17312 54.5939 8.80137 48.5984 12.3497 43.7432C15.8979 38.888 21.1158 35.5158 27 34.275C28.6189 26.7244 32.7781 19.9574 38.7836 15.103C44.7892 10.2486 52.2778 7.60049 60 7.60049C67.7221 7.60049 75.2107 10.2486 81.2163 15.103C87.2218 19.9574 91.3811 26.7244 93 34.275C98.8842 35.5158 104.102 38.888 107.65 43.7432C111.199 48.5984 112.827 54.5939 112.222 60.577C111.617 66.5601 108.822 72.1085 104.374 76.1553C99.9256 80.2022 94.1384 82.4619 88.125 82.5ZM60 15C53.601 15.0064 47.4248 17.3499 42.6323 21.5899C37.8398 25.83 34.7611 31.6746 33.975 38.025L33.75 41.25H30.525C26.0494 41.429 21.8283 43.3786 18.7902 46.6699C15.7521 49.9611 14.1459 54.3245 14.325 58.8C14.504 63.2755 16.4536 67.4966 19.7448 70.5347C23.0361 73.5728 27.3994 75.179 31.875 75H88.125C92.6005 75.179 96.9638 73.5728 100.255 70.5347C103.546 67.4966 105.496 63.2755 105.675 58.8C105.854 54.3245 104.248 49.9611 101.21 46.6699C98.1716 43.3786 93.9505 41.429 89.475 41.25H86.25L85.875 38.175C85.1259 31.8229 82.0834 25.9629 77.3189 21.6956C72.5544 17.4283 66.3959 15.0474 60 15ZM45 93.9375L41.0625 90L35.625 95.4375L30.1875 90L26.25 93.9375L31.6875 99.375L26.25 104.813L30.1875 108.75L35.625 103.312L41.0625 108.75L45 104.813L39.5625 99.375L45 93.9375ZM97.5 93.9375L93.5625 90L88.125 95.4375L82.6875 90L78.75 93.9375L84.1875 99.375L78.75 104.813L82.6875 108.75L88.125 103.312L93.5625 108.75L97.5 104.813L92.0625 99.375L97.5 93.9375ZM71.25 101.437L67.3125 97.5L61.875 102.938L56.4375 97.5L52.5 101.437L57.9375 106.875L52.5 112.313L56.4375 116.25L61.875 110.812L67.3125 116.25L71.25 112.313L65.8125 106.875L71.25 101.437Z" fill="#1F1F81"/>
</svg>
