<svg width="120" height="120" viewBox="0 0 120 120" fill="none" xmlns="http://www.w3.org/2000/svg">
<path d="M63.75 112.5C63.111 112.5 62.4828 112.336 61.9248 112.025C61.3668 111.713 60.8976 111.265 60.5618 110.721C60.2259 110.177 60.0346 109.557 60.0058 108.919C59.9771 108.28 60.1119 107.645 60.3975 107.074L67.8975 92.0738C68.1081 91.6178 68.4082 91.2089 68.7798 90.8711C69.1515 90.5334 69.5872 90.2737 70.0612 90.1076C70.5351 89.9414 71.0376 89.8721 71.5388 89.9039C72.04 89.9356 72.5297 90.0677 72.9789 90.2923C73.4281 90.5169 73.8276 90.8294 74.1537 91.2113C74.4798 91.5932 74.7259 92.0368 74.8773 92.5156C75.0287 92.9945 75.0824 93.4988 75.0352 93.9988C74.988 94.4988 74.8409 94.9842 74.6025 95.4263L67.1025 110.426C66.792 111.05 66.3137 111.574 65.7214 111.94C65.1292 112.307 64.4464 112.501 63.75 112.5ZM30 112.5C29.361 112.5 28.7328 112.336 28.1748 112.025C27.6168 111.713 27.1476 111.265 26.8118 110.721C26.4759 110.177 26.2846 109.557 26.2558 108.919C26.2271 108.28 26.3619 107.645 26.6475 107.074L34.1475 92.0738C34.3581 91.6178 34.6582 91.2089 35.0298 90.8711C35.4015 90.5334 35.8372 90.2737 36.3112 90.1076C36.7851 89.9414 37.2876 89.8721 37.7888 89.9039C38.29 89.9356 38.7797 90.0677 39.2289 90.2923C39.6781 90.5169 40.0776 90.8294 40.4037 91.2113C40.7298 91.5932 40.9759 92.0368 41.1273 92.5156C41.2787 92.9945 41.3324 93.4988 41.2852 93.9988C41.238 94.4988 41.0909 94.9842 40.8525 95.4263L33.3525 110.426C33.042 111.05 32.5637 111.574 31.9714 111.94C31.3792 112.307 30.6964 112.501 30 112.5Z" fill="#1F1F81"/>
<path d="M112.5 58.125C112.474 52.5157 110.523 47.0853 106.973 42.7415C103.424 38.3978 98.4915 35.4038 93 34.26C91.4021 26.6917 87.2513 19.9026 81.2432 15.0307C75.2352 10.1587 67.7351 7.49988 60 7.49988C52.2648 7.49988 44.7647 10.1587 38.7567 15.0307C32.7487 19.9026 28.5979 26.6917 27 34.26C21.9944 35.2748 17.4348 37.8386 13.9672 41.5884C10.4995 45.3382 8.29936 50.0839 7.67842 55.1535C7.05748 60.223 8.04718 65.3594 10.5074 69.8353C12.9675 74.3112 16.7735 77.8997 21.3862 80.0925L15.3975 92.0738C15.1591 92.5158 15.0119 93.0012 14.9647 93.5012C14.9175 94.0012 14.9713 94.5056 15.1227 94.9844C15.2741 95.4632 15.5202 95.9068 15.8463 96.2887C16.1724 96.6706 16.5719 96.9832 17.0211 97.2078C17.4703 97.4324 17.96 97.5644 18.4612 97.5962C18.9624 97.6279 19.4649 97.5586 19.9388 97.3925C20.4128 97.2263 20.8485 96.9667 21.2202 96.6289C21.5918 96.2911 21.8919 95.8822 22.1025 95.4263L28.5637 82.5H53.9325L49.1475 92.0738C48.9091 92.5158 48.7619 93.0012 48.7147 93.5012C48.6675 94.0012 48.7212 94.5056 48.8727 94.9844C49.0241 95.4632 49.2702 95.9068 49.5963 96.2887C49.9224 96.6706 50.3219 96.9832 50.7711 97.2078C51.2203 97.4324 51.71 97.5644 52.2112 97.5962C52.7124 97.6279 53.2149 97.5586 53.6888 97.3925C54.1628 97.2263 54.5985 96.9667 54.9702 96.6289C55.3418 96.2911 55.6419 95.8822 55.8525 95.4263L62.3212 82.5H87.6862L82.9012 92.0738C82.6629 92.5158 82.5157 93.0012 82.4685 93.5012C82.4213 94.0012 82.475 94.5056 82.6264 94.9844C82.7779 95.4632 83.0239 95.9068 83.35 96.2887C83.6762 96.6706 84.0757 96.9832 84.5248 97.2078C84.974 97.4324 85.4638 97.5644 85.965 97.5962C86.4662 97.6279 86.9687 97.5586 87.4426 97.3925C87.9165 97.2263 88.3522 96.9667 88.7239 96.6289C89.0956 96.2911 89.3956 95.8822 89.6062 95.4263L96.9 80.8388C101.486 79.0657 105.43 75.9482 108.214 71.895C110.997 67.8418 112.491 63.0421 112.5 58.125ZM88.125 75H31.875C27.5086 75.0142 23.307 73.3343 20.154 70.3137C17.001 67.293 15.1426 63.1672 14.9696 58.8043C14.7967 54.4413 16.3227 50.1814 19.2267 46.9207C22.1307 43.66 26.1862 41.6527 30.54 41.3213L33.6 41.0813L33.9712 38.0363C34.754 31.6838 37.8326 25.8369 42.6272 21.5968C47.4218 17.3568 53.6014 15.0163 60.0018 15.0163C66.4023 15.0163 72.5819 17.3568 77.3765 21.5968C82.1711 25.8369 85.2497 31.6838 86.0325 38.0363L86.4037 41.0813L89.46 41.3213C93.8138 41.6527 97.8693 43.66 100.773 46.9207C103.677 50.1814 105.203 54.4413 105.03 58.8043C104.857 63.1672 102.999 67.293 99.846 70.3137C96.693 73.3343 92.4913 75.0142 88.125 75Z" fill="#1F1F81"/>
</svg>
