<svg width="120" height="120" viewBox="0 0 120 120" fill="none" xmlns="http://www.w3.org/2000/svg">
<path d="M60 26.25C61.9015 26.2496 63.7983 26.438 65.6625 26.8125C71.5536 27.9408 76.9712 30.8091 81.2159 35.0471C85.4606 39.2851 88.3375 44.6982 89.475 50.5875L90.45 55.65L95.5125 56.55C100.626 57.4294 105.22 60.2036 108.379 64.3196C111.537 68.4355 113.029 73.5907 112.556 78.7574C112.083 83.9241 109.679 88.7227 105.826 92.1965C101.972 95.6702 96.9504 97.5639 91.7625 97.5H28.125C22.9371 97.5639 17.9156 95.6702 14.0618 92.1965C10.208 88.7227 7.80499 83.9241 7.33185 78.7574C6.85871 73.5907 8.35021 68.4355 11.509 64.3196C14.6678 60.2036 19.2617 57.4294 24.375 56.55L29.4 55.65L30.375 50.5875C31.6966 43.7111 35.3819 37.5137 40.7924 33.0688C46.203 28.6239 52.9979 26.2117 60 26.25ZM60 18.75C51.2723 18.7427 42.8154 21.78 36.0865 27.3383C29.3577 32.8966 24.7783 40.6279 23.1375 49.2C16.2312 50.4504 10.0421 54.2378 5.78559 59.8183C1.52912 65.3988 -0.487033 72.3692 0.133143 79.3603C0.75332 86.3513 3.965 92.8579 9.13737 97.602C14.3097 102.346 21.069 104.985 28.0875 105H91.8375C98.856 104.985 105.615 102.346 110.788 97.602C115.96 92.8579 119.172 86.3513 119.792 79.3603C120.412 72.3692 118.396 65.3988 114.139 59.8183C109.883 54.2378 103.694 50.4504 96.7875 49.2C95.3751 41.8268 91.7821 35.0473 86.4737 29.7388C81.1652 24.4304 74.3857 20.8374 67.0125 19.425C64.7005 18.9862 62.3532 18.7603 60 18.75Z" fill="#1F1F81"/>
</svg>
