<svg width="100" height="100" viewBox="0 0 100 100" fill="none" xmlns="http://www.w3.org/2000/svg">
<circle cx="50" cy="50" r="50" fill="#E0E1FC"/>
<path d="M50.5 40.2143C52.3365 40.2143 54.1318 40.7589 55.6589 41.7792C57.1859 42.7995 58.3761 44.2498 59.0789 45.9465C59.7817 47.6433 59.9656 49.5103 59.6073 51.3115C59.249 53.1128 58.3646 54.7674 57.066 56.066C55.7674 57.3646 54.1128 58.249 52.3116 58.6073C50.5103 58.9656 48.6433 58.7817 46.9465 58.0789C45.2498 57.3761 43.7995 56.1859 42.7792 54.6589C41.7589 53.1318 41.2143 51.3365 41.2143 49.5C41.2174 47.0382 42.1967 44.6781 43.9374 42.9374C45.6781 41.1967 48.0382 40.2174 50.5 40.2143ZM50.5 35.5714C47.7452 35.5714 45.0522 36.3883 42.7617 37.9188C40.4712 39.4493 38.6859 41.6247 37.6317 44.1698C36.5775 46.7149 36.3016 49.5155 36.8391 52.2173C37.3765 54.9192 38.7031 57.401 40.651 59.349C42.599 61.2969 45.0808 62.6235 47.7827 63.1609C50.4845 63.6984 53.2851 63.4225 55.8302 62.3683C58.3753 61.3141 60.5507 59.5288 62.0812 57.2383C63.6117 54.9478 64.4286 52.2548 64.4286 49.5C64.4286 45.8059 62.9611 42.2631 60.349 39.651C57.7369 37.0389 54.1941 35.5714 50.5 35.5714ZM25.8789 28.1614L29.1661 24.8789L37.3027 33.0179L34.0179 36.3004L25.8789 28.1614ZM18 47.1786H29.6071V51.8214H18V47.1786ZM25.8789 70.8409L34.0179 62.702L37.3004 65.9845L29.1637 74.1234L25.8789 70.8409ZM48.1786 70.3929H52.8214V82H48.1786V70.3929ZM63.702 65.9821L66.9845 62.6996L75.1234 70.8386L71.8409 74.1211L63.702 65.9821ZM71.3929 47.1786H83V51.8214H71.3929V47.1786ZM63.702 33.0155L71.8409 24.8766L75.1234 28.1591L66.9845 36.298L63.702 33.0155ZM48.1786 17H52.8214V28.6071H48.1786V17Z" fill="#1F1F81"/>
</svg>
