<svg width="20" height="21" viewBox="0 0 20 21" fill="none" xmlns="http://www.w3.org/2000/svg">
<path d="M3.72604 8.30969L11.3226 9.33258L12.2532 16.701L17.8746 2.65263L3.72604 8.30969ZM0.66065 9.42985C0.493953 9.40783 0.339263 9.33119 0.220786 9.21192C0.102308 9.09266 0.026728 8.9375 0.00587195 8.77072C-0.0149841 8.60394 0.0200609 8.43495 0.105523 8.29021C0.190985 8.14546 0.322042 8.03311 0.478187 7.97075L18.9572 0.584054C19.0954 0.528774 19.2467 0.515242 19.3925 0.545135C19.5383 0.575027 19.6721 0.64703 19.7773 0.752217C19.8826 0.857403 19.9546 0.991148 19.9845 1.13687C20.0144 1.28259 20.0009 1.43388 19.9456 1.57199L12.5725 19.9931C12.5099 20.1493 12.3972 20.2802 12.2522 20.3655C12.1071 20.4508 11.9379 20.4855 11.771 20.4643C11.604 20.4431 11.4488 20.3671 11.3297 20.2483C11.2106 20.1295 11.1343 19.9745 11.1128 19.8077L9.96022 10.6822L0.66065 9.42985Z" fill="#1F1F81"/>
</svg>
